<?xml version="1.0" encoding="UTF-8" standalone="no"?>
<!-- Created with Inkscape (http://www.inkscape.org/) -->

<svg
   xmlns:dc="http://purl.org/dc/elements/1.1/"
   xmlns:cc="http://creativecommons.org/ns#"
   xmlns:rdf="http://www.w3.org/1999/02/22-rdf-syntax-ns#"
   xmlns:svg="http://www.w3.org/2000/svg"
   xmlns="http://www.w3.org/2000/svg"
   xmlns:xlink="http://www.w3.org/1999/xlink"
   xmlns:sodipodi="http://sodipodi.sourceforge.net/DTD/sodipodi-0.dtd"
   xmlns:inkscape="http://www.inkscape.org/namespaces/inkscape"
   width="320"
   height="72"
   viewBox="0 0 84.666665 19.050001"
   version="1.1"
   id="svg5216"
   inkscape:version="0.92.1 r"
   sodipodi:docname="logo.svg"
   inkscape:export-filename="/home/ecarrea/git/backuppc/images/logos/logo320.png"
   inkscape:export-xdpi="96"
   inkscape:export-ydpi="96">
  <defs
     id="defs5210">
    <linearGradient
       inkscape:collect="always"
       id="linearGradient5868">
      <stop
         style="stop-color:#0064ff;stop-opacity:1;"
         offset="0"
         id="stop5864" />
      <stop
         style="stop-color:#0056dc;stop-opacity:1"
         offset="1"
         id="stop5866" />
    </linearGradient>
    <linearGradient
       inkscape:collect="always"
       xlink:href="#linearGradient5082-7"
       id="linearGradient5084"
       x1="3.4807298"
       y1="39.040783"
       x2="38.702625"
       y2="39.040783"
       gradientUnits="userSpaceOnUse"
       gradientTransform="matrix(0.3022277,0,0,0.28739826,0.59197478,275.51379)" />
    <linearGradient
       inkscape:collect="always"
       id="linearGradient5082-7">
      <stop
         style="stop-color:#5599ff;stop-opacity:1;"
         offset="0"
         id="stop5078" />
      <stop
         style="stop-color:#b5d1ff;stop-opacity:1"
         offset="1"
         id="stop5080" />
    </linearGradient>
    <linearGradient
       inkscape:collect="always"
       xlink:href="#linearGradient5868"
       id="linearGradient5870"
       x1="1.8049464"
       y1="287.25034"
       x2="12.568452"
       y2="287.25034"
       gradientUnits="userSpaceOnUse"
       gradientTransform="translate(0.14031347,0.01639143)" />
  </defs>
  <sodipodi:namedview
     id="base"
     pagecolor="#ffffff"
     bordercolor="#666666"
     borderopacity="1.0"
     inkscape:pageopacity="0.0"
     inkscape:pageshadow="2"
     inkscape:zoom="1.979899"
     inkscape:cx="120.97253"
     inkscape:cy="23.337065"
     inkscape:document-units="mm"
     inkscape:current-layer="layer1"
     showgrid="false"
     units="px"
     inkscape:window-width="1920"
     inkscape:window-height="1053"
     inkscape:window-x="0"
     inkscape:window-y="27"
     inkscape:window-maximized="1" />
  <metadata
     id="metadata5213">
    <rdf:RDF>
      <cc:Work
         rdf:about="">
        <dc:format>image/svg+xml</dc:format>
        <dc:type
           rdf:resource="http://purl.org/dc/dcmitype/StillImage" />
        <dc:title></dc:title>
      </cc:Work>
    </rdf:RDF>
  </metadata>
  <g
     inkscape:label="Layer 1"
     inkscape:groupmode="layer"
     id="layer1"
     transform="translate(0,-277.94998)">
    <g
       id="g4577"
       transform="matrix(1.0463227,0,0,1.0463227,-1.9610012,-12.209227)">
      <g
         id="g4513">
        <rect
           style="opacity:1;fill:url(#linearGradient5084);fill-opacity:1;stroke:none;stroke-width:0.62052369;stroke-linecap:round;stroke-miterlimit:4;stroke-dasharray:none;stroke-opacity:1"
           id="rect4240"
           width="9.7628775"
           height="13.837942"
           x="2.0850163"
           y="279.81509"
           ry="2.034287"
           transform="matrix(0.96983814,-0.24374982,0,1,0,0)" />
        <path
           style="opacity:1;fill:url(#linearGradient5870);fill-opacity:1;stroke:none;stroke-width:1.02600002;stroke-linecap:round;stroke-miterlimit:4;stroke-dasharray:none;stroke-opacity:1"
           d="m 3.4749631,279.22536 c -0.8839289,0.0385 -1.5228132,0.65605 -1.5228132,1.57939 v 3.13858 c -0.00344,0.0416 -0.00689,0.0836 -0.00689,0.12727 v 7.14789 c 0,0.82458 0.6964689,1.68083 1.5615129,1.91971 l 7.6404682,2.10977 c 0.865045,0.23888 1.561524,-0.23227 1.561524,-1.05684 v -7.14789 c 0,-0.82458 -0.696479,-1.68083 -1.561524,-1.91971 l -1.1743666,-0.32406 v -1.99428 c 0,-1.13641 -0.9671638,-2.2923 -2.168675,-2.59194 l -3.6835003,-0.91893 c -0.2252873,-0.0562 -0.4418956,-0.0779 -0.6458757,-0.069 z"
           id="rect4240-3-6"
           inkscape:connector-curvature="0" />
      </g>
      <g
         id="g4567">
        <g
           aria-label="Backup"
           style="font-style:normal;font-variant:normal;font-weight:normal;font-stretch:normal;font-size:17.75882149px;line-height:8.87941074px;font-family:Calibri;-inkscape-font-specification:Calibri;letter-spacing:-0.01236992px;word-spacing:0px;fill:#333333;fill-opacity:1;stroke:none;stroke-width:0.44397053px;stroke-linecap:butt;stroke-linejoin:miter;stroke-opacity:1"
           id="text5105">
          <path
             id="path4553"
             style="font-style:normal;font-variant:normal;font-weight:bold;font-stretch:normal;font-family:Calibri;-inkscape-font-specification:'Calibri Bold';letter-spacing:-0.91228151px;word-spacing:0px;fill:#333333;stroke-width:0.44397053px"
             d="m 63.874448,288.04817 q 0,1.03188 -0.225454,1.86433 -0.216782,0.82377 -0.641676,1.40475 -0.424894,0.58098 -1.057899,0.89314 -0.633005,0.31217 -1.448107,0.31217 -0.33818,0 -0.624333,-0.0694 -0.277482,-0.0607 -0.546292,-0.19077 -0.260139,-0.13874 -0.520278,-0.33818 -0.260139,-0.19944 -0.537621,-0.46825 v 3.64195 q 0,0.0867 -0.05203,0.15608 -0.05203,0.0694 -0.182098,0.11273 -0.121398,0.052 -0.329509,0.078 -0.208111,0.026 -0.528949,0.026 -0.320839,0 -0.52895,-0.026 -0.208111,-0.026 -0.33818,-0.078 -0.121399,-0.0434 -0.173426,-0.11273 -0.05203,-0.0694 -0.05203,-0.15608 V 284.2935 q 0,-0.0867 0.04336,-0.14742 0.04336,-0.0694 0.147412,-0.11272 0.112727,-0.0434 0.286153,-0.0607 0.182098,-0.026 0.450908,-0.026 0.260139,0 0.433565,0.026 0.182097,0.0173 0.286153,0.0607 0.112727,0.0433 0.156083,0.11272 0.04336,0.0607 0.04336,0.14742 v 0.91048 q 0.33818,-0.34685 0.659018,-0.60699 0.32951,-0.26881 0.66769,-0.44223 0.338181,-0.1821 0.693704,-0.26881 0.364195,-0.0867 0.771746,-0.0867 0.849787,0 1.448107,0.33818 0.59832,0.32951 0.971186,0.91049 0.381537,0.58098 0.554963,1.35272 0.173426,0.77175 0.173426,1.64755 z m -2.271881,0.15608 q 0,-0.49426 -0.07804,-0.94517 -0.06937,-0.45958 -0.251468,-0.8151 -0.173426,-0.35552 -0.46825,-0.56364 -0.286153,-0.21678 -0.719718,-0.21678 -0.216783,0 -0.433565,0.0694 -0.208111,0.0607 -0.433565,0.20811 -0.216783,0.14742 -0.450908,0.38154 -0.234125,0.23413 -0.494264,0.58098 v 2.54936 q 0.459579,0.58098 0.875802,0.90182 0.416222,0.31216 0.86713,0.31216 0.424893,0 0.719717,-0.21678 0.303496,-0.21678 0.494264,-0.56364 0.190769,-0.35552 0.277482,-0.79775 0.09538,-0.44224 0.09538,-0.88448 z m -6.805175,3.82405 q 0,0.0867 -0.04336,0.15608 -0.04336,0.0607 -0.156084,0.10405 -0.104055,0.0434 -0.286153,0.0607 -0.173426,0.026 -0.442236,0.026 -0.286153,0 -0.46825,-0.026 -0.173426,-0.0173 -0.277482,-0.0607 -0.104055,-0.0434 -0.147412,-0.10405 -0.04336,-0.0694 -0.04336,-0.15608 v -0.89315 q -0.641677,0.69371 -1.309367,1.04056 -0.659018,0.34685 -1.370065,0.34685 -0.79776,0 -1.344051,-0.26014 -0.537621,-0.26014 -0.875802,-0.71105 -0.329509,-0.4509 -0.476921,-1.04055 -0.138741,-0.59832 -0.138741,-1.48279 v -4.73453 q 0,-0.0867 0.04336,-0.14742 0.05203,-0.0694 0.173426,-0.11272 0.130069,-0.0434 0.33818,-0.0607 0.216783,-0.026 0.52895,-0.026 0.320838,0 0.528949,0.026 0.208111,0.0173 0.329509,0.0607 0.13007,0.0433 0.182097,0.11272 0.05203,0.0607 0.05203,0.14742 v 4.37033 q 0,0.60699 0.07804,0.92783 0.07804,0.32084 0.234125,0.55496 0.164755,0.22546 0.407551,0.35553 0.251468,0.1214 0.580977,0.1214 0.416223,0 0.832445,-0.3035 0.424894,-0.3035 0.901815,-0.88447 v -5.14208 q 0,-0.0867 0.04336,-0.14742 0.05203,-0.0694 0.173426,-0.11272 0.130069,-0.0434 0.33818,-0.0607 0.208111,-0.026 0.52895,-0.026 0.320838,0 0.528949,0.026 0.208111,0.0173 0.329509,0.0607 0.121398,0.0433 0.173426,0.11272 0.05203,0.0607 0.05203,0.14742 z m -7.559579,0.009 q 0,0.0867 -0.05203,0.15608 -0.04336,0.0607 -0.173426,0.10406 -0.121399,0.0347 -0.338181,0.052 -0.216783,0.026 -0.563635,0.026 -0.355523,0 -0.580977,-0.0173 -0.216782,-0.0173 -0.364194,-0.052 -0.138741,-0.0434 -0.216783,-0.11273 -0.07804,-0.0694 -0.138741,-0.1821 L 42.23447,287.9358 v 4.09286 q 0,0.0867 -0.05203,0.15608 -0.05203,0.0607 -0.182098,0.10405 -0.121398,0.0434 -0.329509,0.0607 -0.208111,0.026 -0.528949,0.026 -0.320838,0 -0.52895,-0.026 -0.208111,-0.0173 -0.33818,-0.0607 -0.121398,-0.0434 -0.173426,-0.10405 -0.05203,-0.0694 -0.05203,-0.15608 V 280.6259 q 0,-0.0867 0.05203,-0.15609 0.05203,-0.0694 0.173426,-0.11272 0.130069,-0.052 0.33818,-0.078 0.208112,-0.026 0.52895,-0.026 0.320838,0 0.528949,0.026 0.208111,0.026 0.329509,0.078 0.13007,0.0433 0.182098,0.11272 0.05203,0.0694 0.05203,0.15609 v 6.78962 l 2.289224,-3.07831 q 0.06937,-0.10405 0.156083,-0.18209 0.08671,-0.0781 0.225454,-0.1214 0.147412,-0.0434 0.355523,-0.0607 0.216783,-0.026 0.546292,-0.026 0.320838,0 0.53762,0.026 0.225454,0.0173 0.355524,0.0607 0.138741,0.0433 0.190768,0.11272 0.05203,0.0607 0.05203,0.15609 0,0.13007 -0.06937,0.27748 -0.0607,0.14741 -0.190769,0.31217 l -2.263209,2.5667 2.618732,4.0495 q 0.104056,0.17342 0.147413,0.30349 0.05203,0.1214 0.05203,0.22546 z m -7.845729,-1.24 q 0,0.22546 -0.01734,0.38154 -0.0087,0.14741 -0.03469,0.25147 -0.01734,0.10405 -0.05203,0.17342 -0.02601,0.0607 -0.130069,0.16476 -0.104056,0.0954 -0.355523,0.24279 -0.251468,0.13874 -0.572306,0.25147 -0.320838,0.11273 -0.702375,0.1821 -0.372866,0.0694 -0.771746,0.0694 -0.893144,0 -1.586848,-0.27748 -0.685033,-0.27748 -1.153283,-0.81511 -0.46825,-0.54629 -0.711046,-1.3267 -0.234125,-0.78042 -0.234125,-1.78629 0,-1.16196 0.286152,-2.00307 0.294825,-0.84979 0.815103,-1.40475 0.520278,-0.55497 1.231324,-0.82378 0.711047,-0.26881 1.560834,-0.26881 0.346852,0 0.676361,0.0607 0.338181,0.0607 0.624334,0.16476 0.294824,0.10405 0.520278,0.23412 0.234125,0.13007 0.329509,0.22546 0.09539,0.0954 0.13007,0.16475 0.04336,0.0607 0.0607,0.16476 0.02601,0.10405 0.03468,0.26013 0.01734,0.14742 0.01734,0.3642 0,0.50293 -0.08671,0.71105 -0.08671,0.19944 -0.225454,0.19944 -0.147412,0 -0.312167,-0.1214 -0.164755,-0.1214 -0.390208,-0.26881 -0.225454,-0.14741 -0.537621,-0.26881 -0.312167,-0.1214 -0.745732,-0.1214 -0.849787,0 -1.300695,0.65902 -0.450907,0.65035 -0.450907,1.91636 0,0.62433 0.112727,1.10125 0.112727,0.47692 0.329509,0.79776 0.225454,0.32084 0.554963,0.48559 0.338181,0.15609 0.780417,0.15609 0.450908,0 0.771746,-0.13007 0.329509,-0.13874 0.572306,-0.3035 0.242796,-0.16475 0.407551,-0.29482 0.164754,-0.13874 0.277481,-0.13874 0.07804,0 0.13007,0.0434 0.05203,0.0434 0.07804,0.16476 0.03469,0.11272 0.05203,0.29482 0.01734,0.1821 0.01734,0.46825 z m -7.126015,1.25734 q 0,0.1214 -0.08671,0.19077 -0.08671,0.0694 -0.277481,0.0954 -0.182098,0.0347 -0.546292,0.0347 -0.390209,0 -0.572306,-0.0347 -0.173426,-0.026 -0.251468,-0.0954 -0.06937,-0.0694 -0.06937,-0.19077 v -0.61566 q -0.476922,0.5116 -1.092584,0.79776 -0.606991,0.28615 -1.352723,0.28615 -0.615662,0 -1.13594,-0.16475 -0.511607,-0.15609 -0.893144,-0.46825 -0.372866,-0.32084 -0.580977,-0.78909 -0.208111,-0.46825 -0.208111,-1.09259 0,-0.67636 0.260139,-1.17062 0.26881,-0.50294 0.789088,-0.82378 0.52895,-0.32951 1.309366,-0.48559 0.780417,-0.15608 1.812302,-0.15608 h 0.754403 v -0.46825 q 0,-0.3642 -0.07804,-0.63301 -0.06937,-0.27748 -0.242796,-0.45958 -0.164755,-0.18209 -0.450908,-0.26881 -0.277481,-0.0867 -0.693703,-0.0867 -0.546292,0 -0.979857,0.1214 -0.424894,0.1214 -0.754403,0.26881 -0.32951,0.14741 -0.554964,0.26881 -0.216782,0.1214 -0.355523,0.1214 -0.09538,0 -0.173426,-0.0607 -0.06937,-0.0607 -0.121398,-0.17343 -0.04336,-0.11272 -0.06937,-0.27748 -0.02601,-0.16475 -0.02601,-0.36419 0,-0.26881 0.04336,-0.4249 0.04336,-0.15608 0.164755,-0.27748 0.121398,-0.13007 0.424894,-0.27748 0.303495,-0.15608 0.711046,-0.28615 0.407551,-0.13007 0.884473,-0.20811 0.485592,-0.0867 0.997199,-0.0867 0.910487,0 1.552163,0.1821 0.650347,0.17343 1.06657,0.54629 0.416222,0.3642 0.606991,0.94517 0.190768,0.58098 0.190768,1.37874 z m -2.141811,-3.31244 h -0.832445 q -0.528949,0 -0.901815,0.0781 -0.372866,0.078 -0.606991,0.23412 -0.234125,0.15608 -0.346852,0.38154 -0.104055,0.21678 -0.104055,0.50293 0,0.4856 0.303495,0.76308 0.312167,0.27748 0.858459,0.27748 0.459579,0 0.841116,-0.23413 0.390208,-0.23412 0.789088,-0.68503 z m -5.235669,0.21679 q 0,0.59832 -0.164755,1.08391 -0.164755,0.48559 -0.459579,0.85846 -0.286153,0.37286 -0.693704,0.64167 -0.39888,0.26881 -0.884472,0.44224 -0.485593,0.17343 -1.040556,0.26014 -0.546292,0.078 -1.222653,0.078 h -2.982928 q -0.286152,0 -0.485592,-0.16475 -0.190769,-0.17343 -0.190769,-0.55497 v -9.78122 q 0,-0.38154 0.190769,-0.5463 0.19944,-0.17342 0.485592,-0.17342 h 2.818173 q 1.031884,0 1.742931,0.17342 0.719718,0.17343 1.205311,0.52895 0.494264,0.34686 0.754403,0.88448 0.260139,0.53762 0.260139,1.26601 0,0.40755 -0.104056,0.77174 -0.104055,0.35552 -0.303495,0.65035 -0.19944,0.29482 -0.494264,0.52028 -0.286153,0.22545 -0.659019,0.36419 0.476921,0.0867 0.875801,0.3035 0.407551,0.21678 0.702375,0.56363 0.303496,0.33818 0.476922,0.79776 0.173426,0.45958 0.173426,1.03189 z m -2.948242,-4.72586 q 0,-0.33818 -0.104056,-0.60699 -0.104055,-0.26881 -0.312166,-0.44224 -0.208112,-0.1821 -0.52895,-0.27748 -0.312166,-0.0954 -0.841116,-0.0954 h -1.153283 v 2.91356 h 1.274681 q 0.494265,0 0.789089,-0.11273 0.294824,-0.12139 0.485592,-0.32083 0.19944,-0.20812 0.294825,-0.47693 0.09538,-0.27748 0.09538,-0.58097 z m 0.580977,4.8039 q 0,-0.39021 -0.130069,-0.69371 -0.13007,-0.31216 -0.381538,-0.52027 -0.251467,-0.20812 -0.641676,-0.32084 -0.390208,-0.11273 -1.014542,-0.11273 h -1.352723 v 3.19104 h 1.647547 q 0.476922,0 0.79776,-0.0954 0.329509,-0.10405 0.563634,-0.29482 0.242797,-0.19944 0.372866,-0.48559 0.138741,-0.29483 0.138741,-0.66769 z"
             inkscape:connector-curvature="0" />
        </g>
        <g
           aria-label="PC"
           style="font-style:italic;font-variant:normal;font-weight:bold;font-stretch:normal;font-size:17.75882149px;line-height:8.87941074px;font-family:Calibri;-inkscape-font-specification:'Calibri Bold Italic';letter-spacing:-0.79374999px;word-spacing:0px;fill:#0064ff;fill-opacity:1;stroke:none;stroke-width:0.44397053px;stroke-linecap:butt;stroke-linejoin:miter;stroke-opacity:1"
           id="text5105-5">
          <path
             id="path4559"
             style="font-style:italic;font-variant:normal;font-weight:bold;font-stretch:normal;font-family:Calibri;-inkscape-font-specification:'Calibri Bold Italic';letter-spacing:-0.79374999px;fill:#0064ff;fill-opacity:1;stroke-width:0.44397053px"
             d="m 82.721409,282.10635 q 0,0.2428 -0.08671,0.65035 -0.07804,0.40755 -0.208111,0.65902 -0.121398,0.2428 -0.277481,0.2428 -0.112727,0 -0.268811,-0.13874 -0.156083,-0.14742 -0.407551,-0.31217 -0.251467,-0.16476 -0.641676,-0.3035 -0.390208,-0.14741 -0.971186,-0.14741 -0.641676,0 -1.170625,0.26014 -0.528949,0.25147 -0.945172,0.67636 -0.416222,0.41622 -0.728389,0.96252 -0.312167,0.54629 -0.520278,1.13594 -0.19944,0.58964 -0.303495,1.17929 -0.09538,0.58098 -0.09538,1.08392 0,0.60699 0.147413,1.06657 0.156083,0.45957 0.442236,0.76307 0.286153,0.3035 0.702375,0.45958 0.416222,0.14741 0.9365,0.14741 0.615663,0 1.049228,-0.13007 0.442236,-0.13007 0.745731,-0.28615 0.312167,-0.15609 0.511607,-0.28615 0.208111,-0.13007 0.372866,-0.13007 0.112727,0 0.147412,0.0867 0.04336,0.078 0.04336,0.22545 0,0.0607 -0.01734,0.1821 -0.01734,0.1214 -0.04336,0.27748 -0.02601,0.14741 -0.0607,0.32951 -0.03469,0.17343 -0.07804,0.32951 -0.04336,0.14741 -0.104056,0.27748 -0.05203,0.1214 -0.147412,0.21678 -0.09538,0.0954 -0.372866,0.25147 -0.277481,0.14741 -0.676361,0.27748 -0.39888,0.13007 -0.901815,0.21679 -0.502936,0.0954 -1.075242,0.0954 -0.945171,0 -1.708246,-0.25147 -0.754403,-0.25147 -1.283352,-0.76307 -0.528949,-0.51161 -0.815102,-1.28335 -0.286153,-0.77175 -0.286153,-1.80363 0,-0.80644 0.164755,-1.67357 0.164754,-0.8758 0.494264,-1.70824 0.338181,-0.83245 0.849787,-1.57818 0.511607,-0.74573 1.205311,-1.30069 0.702375,-0.56364 1.586848,-0.89315 0.893144,-0.32951 1.977056,-0.32951 0.606991,0 1.144612,0.13007 0.546291,0.1214 0.945171,0.32951 0.407551,0.20811 0.563635,0.38154 0.164754,0.16475 0.164754,0.42489 z m -8.892091,1.66489 q 0,0.4856 -0.112727,1.01455 -0.104056,0.52894 -0.346852,1.04055 -0.242797,0.50294 -0.633005,0.96252 -0.381537,0.4509 -0.945172,0.80643 -0.554963,0.34685 -1.292023,0.55496 -0.737061,0.19944 -1.73426,0.19944 h -1.170626 l -0.719718,3.58992 q -0.01734,0.0867 -0.08671,0.15608 -0.06937,0.0694 -0.216782,0.11273 -0.147412,0.0434 -0.372866,0.0607 -0.225454,0.026 -0.554963,0.026 -0.320838,0 -0.537621,-0.026 -0.208111,-0.0173 -0.329509,-0.0607 -0.121398,-0.0434 -0.164755,-0.10406 -0.04336,-0.0694 -0.01734,-0.16475 l 2.020412,-10.10207 q 0.07804,-0.40755 0.338181,-0.60699 0.260139,-0.20811 0.641676,-0.20811 h 2.453978 q 0.450908,0 0.806431,0.0347 0.355523,0.026 0.702375,0.0954 0.528949,0.10406 0.945172,0.32084 0.424894,0.21678 0.719718,0.54629 0.294824,0.32084 0.450907,0.76308 0.156084,0.43356 0.156084,0.98852 z m -2.40195,0.26014 q 0,-0.41622 -0.19944,-0.71972 -0.19944,-0.30349 -0.615662,-0.42489 -0.182098,-0.0607 -0.407552,-0.078 -0.225453,-0.026 -0.502935,-0.026 h -1.005871 l -0.745731,3.8067 h 1.040556 q 0.494264,0 0.841116,-0.11273 0.355523,-0.1214 0.615662,-0.31217 0.26881,-0.19077 0.450907,-0.45091 0.190769,-0.26013 0.303496,-0.54629 0.121398,-0.28615 0.173426,-0.5723 0.05203,-0.29483 0.05203,-0.56364 z"
             inkscape:connector-curvature="0" />
        </g>
      </g>
    </g>
  </g>
</svg>
