<svg version="1" xmlns="http://www.w3.org/2000/svg" width="933.333" height="933.333" viewBox="0 0 700.000000 700.000000"><path d="M201.7 78.1c-24.9 3.2-44.3 20-50.2 43.6-1.4 5.4-1.6 30-1.8 215.5-.2 200.5-.1 209.6 1.6 215.8 4.8 17 15.9 32.7 30.9 44 14.2 10.7 3.2 7.3 172.3 54 23.7 6.5 67.5 18.7 97.5 27 58.3 16.2 65.3 17.6 76.9 15.1 17.6-3.8 29.3-16.4 32.1-34.6.7-4.8 1-51.7.7-149-.2-130.6-.4-142.5-2-147.6-7-23.1-23.4-42.5-44.7-52.8-4.5-2.2-17.5-6.4-32.7-10.6l-25.1-7-.4-44c-.4-43.4-.5-44.1-3-53.6-4.9-18.1-13-32-27.6-47.1-10.9-11.3-20.4-18.1-33.9-24.5-8.6-4.1-17.9-6.7-82.8-22.9-40.1-10.1-76.4-19-80.5-19.8-10.4-2-19.3-2.5-27.3-1.5z"/></svg>
